<?xml version="1.0" standalone="no"?>
<!DOCTYPE svg PUBLIC "-//W3C//DTD SVG 20010904//EN"
 "http://www.w3.org/TR/2001/REC-SVG-20010904/DTD/svg10.dtd">
<svg version="1.0" xmlns="http://www.w3.org/2000/svg"
 width="1280.000000pt" height="1226.000000pt" viewBox="0 0 1280.000000 1226.000000"
 preserveAspectRatio="xMidYMid meet">
<g transform="translate(0.000000,1226.000000) scale(0.100000,-0.100000)"
fill="#ff5722" stroke="none">
<path d="M2990 12253 c-74 -6 -268 -42 -367 -68 -128 -34 -269 -87 -398 -152
-125 -62 -134 -68 -146 -101 -15 -38 9 -65 131 -151 183 -128 1063 -824 1087
-860 73 -108 46 -329 -72 -579 -152 -322 -404 -612 -614 -706 -87 -39 -150
-34 -257 18 -84 42 -436 276 -938 624 -180 125 -329 222 -342 222 -47 0 -64
-29 -80 -135 -59 -404 0 -823 165 -1178 199 -430 610 -773 1137 -952 165 -56
322 -90 614 -135 612 -95 1003 -212 1176 -353 42 -34 278 -303 678 -772 l613
-720 -46 -13 c-134 -37 -97 -4 -1241 -1103 -591 -568 -1557 -1495 -2147 -2061
-744 -714 -1084 -1047 -1112 -1089 -66 -99 -83 -158 -79 -269 3 -84 8 -104 39
-170 20 -41 63 -109 96 -150 33 -41 265 -278 514 -525 496 -492 507 -501 684
-561 96 -32 231 -42 318 -24 82 17 184 71 248 132 95 91 4013 4227 4029 4253
8 14 17 25 20 24 13 -1 1260 -1477 1303 -1542 121 -181 206 -423 237 -672 12
-103 16 -282 11 -540 -3 -138 0 -202 13 -274 60 -330 231 -638 506 -911 530
-525 1341 -639 2057 -289 116 56 144 74 149 94 13 52 -3 72 -109 144 -167 114
-959 743 -989 787 -36 51 -44 110 -29 216 43 325 361 794 625 923 66 32 151
48 194 36 18 -6 124 -73 235 -151 197 -137 679 -470 865 -597 51 -34 101 -63
111 -63 10 0 29 8 41 18 30 25 48 127 56 332 16 381 -75 724 -273 1030 -231
355 -610 638 -980 730 -44 11 -209 38 -367 60 -510 72 -707 121 -920 227 -101
50 -158 87 -235 151 -57 48 -1544 1793 -1549 1819 -3 12 859 882 1311 1322
l75 74 239 -185 c368 -284 435 -328 508 -328 31 0 45 7 79 44 147 155 195 201
266 254 194 147 336 171 507 87 127 -63 278 -233 332 -375 20 -52 25 -84 25
-160 1 -87 -2 -101 -31 -163 -20 -42 -56 -92 -92 -130 l-60 -63 300 -319 299
-320 48 4 c121 9 354 98 532 203 251 149 492 403 697 736 94 154 118 209 108
249 -8 34 -304 334 -548 556 -98 89 -181 163 -186 165 -4 1 -33 -31 -64 -71
-59 -77 -112 -121 -159 -132 -103 -25 -313 153 -437 369 -113 198 -122 279
-67 596 l33 195 -96 98 c-183 187 -1525 1424 -1901 1752 -678 592 -1098 824
-1645 910 -137 22 -471 30 -620 16 -499 -48 -961 -214 -1403 -504 -225 -147
-387 -280 -432 -353 -49 -79 12 -72 280 34 848 332 1325 395 1770 232 259 -94
462 -311 526 -560 26 -102 16 -254 -22 -345 -66 -154 -171 -291 -406 -531
-104 -105 -188 -194 -188 -197 0 -10 71 -91 268 -307 225 -245 299 -321 467
-478 l120 -111 -635 -636 c-349 -349 -638 -635 -641 -635 -12 0 -1443 1709
-1496 1787 -200 290 -273 699 -232 1291 28 401 -68 754 -298 1097 -406 604
-1059 916 -1793 858z"/>
</g>
</svg>
